# xmcd
#
# Track frame offsets:
#   150
#   24601
#   35291
#   55190
#   70964
#   95517
#   110860
#   128695
#   146111
#   161162
#   185385
#   203943
#   221386
#   241863
#   258874
#   275661
#
# Disc length: 3801 seconds
#
# Revision: 5
# Processed by: cddbd v1.5.2PL0 Copyright (c) Steve Scherf et al.
# Submitted via: Media_Universe 3.0
#
DISCID=ef0ed710
DTITLE=Muddy Waters - Muddy Waters - Blue Skies - The Best Of
DYEAR=2002
DGENRE=Blues
TTITLE0=Muddy Waters - Mannish Boy
TTITLE1=Muddy Waters - I Want To Be Loved
TTITLE2=Muddy Waters - Jealous Hearted Man
TTITLE3=Muddy Waters - I Can't Be Satisfied
TTITLE4=Muddy Waters - Deep Down In Florida
TTITLE5=Muddy Waters - I'm Ready
TTITLE6=Muddy Waters - I'm Your Hoochie Coochie Man
TTITLE7=Muddy Waters - Rock Me
TTITLE8=Muddy Waters - Good Morning Little School Girl
TTITLE9=Muddy Waters - Nine Below Zero
TTITLE10=Muddy Waters - Baby Please Don't Go
TTITLE11=Muddy Waters - I'm A King Bee
TTITLE12=Muddy Waters - Too Young To Know
TTITLE13=Muddy Waters - Mean Old Frisco Blues
TTITLE14=Muddy Waters - I Feel Like Going Home
TTITLE15=Muddy Waters - No Escape From The Blues
EXTD=YEAR: 2002
EXTT0=
EXTT1=
EXTT2=
EXTT3=
EXTT4=
EXTT5=
EXTT6=
EXTT7=
EXTT8=
EXTT9=
EXTT10=
EXTT11=
EXTT12=
EXTT13=
EXTT14=
EXTT15=
PLAYORDER=
